<?xml version="1.0" standalone="no"?>
<!DOCTYPE svg PUBLIC "-//W3C//DTD SVG 20010904//EN"
 "http://www.w3.org/TR/2001/REC-SVG-20010904/DTD/svg10.dtd">
<svg version="1.0" xmlns="http://www.w3.org/2000/svg"
 width="1365.000000pt" height="1365.000000pt" viewBox="0 0 1365.000000 1365.000000"
 preserveAspectRatio="xMidYMid meet">

<g transform="translate(0.000000,1365.000000) scale(0.100000,-0.100000)"
fill="#000000" stroke="none">
<path d="M6590 13639 c-468 -13 -973 -84 -1435 -201 -2237 -566 -4031 -2218
-4785 -4405 -346 -1002 -450 -2132 -294 -3198 195 -1336 767 -2552 1684 -3580
118 -133 448 -458 585 -576 910 -787 1977 -1312 3137 -1544 95 -19 197 -37
226 -41 l52 -7 0 2382 0 2381 -870 0 -870 0 0 990 0 990 870 0 869 0 3 933 c4
1013 4 999 64 1295 140 687 498 1224 1034 1555 41 25 131 73 200 106 319 154
658 235 1089 262 346 22 1026 -24 1566 -104 l150 -23 3 -841 2 -841 -522 -5
c-550 -4 -606 -8 -768 -56 -267 -77 -465 -240 -574 -472 -43 -90 -81 -220 -95
-323 -7 -49 -11 -335 -11 -782 l0 -704 946 0 946 0 -6 -27 c-9 -43 -296 -1926
-296 -1940 0 -10 -166 -13 -795 -13 l-795 0 0 -2380 c0 -2317 0 -2380 19
-2380 35 0 386 71 546 111 1617 401 3016 1368 3977 2749 585 840 987 1863
1132 2880 107 748 96 1478 -35 2205 -474 2638 -2461 4760 -5064 5409 -610 152
-1203 213 -1885 195z"/>
</g>
</svg>
